# Blender 5.2.2 LTS
# www.blender.org
mtllib Suzanne.mtl
o Suzanne
v 0.437500 -0.765625 0.164062
v -0.437500 -0.765625 0.164062
v 0.351562 -0.781250 0.132812
v -0.351562 -0.781250 0.132812
v 0.273438 -0.796875 0.164062
v -0.273438 -0.796875 0.164062
v 0.242188 -0.796875 0.242188
v -0.242188 -0.796875 0.242188
v 0.273438 -0.796875 0.328125
v -0.273438 -0.796875 0.328125
v 0.351562 -0.781250 0.359375
v -0.351562 -0.781250 0.359375
v 0.437500 -0.765625 0.328125
v -0.437500 -0.765625 0.328125
v 0.468750 -0.757812 0.242188
v -0.468750 -0.757812 0.242188
v 0.476562 -0.773438 0.242188
v -0.476562 -0.773438 0.242188
v 0.445312 -0.781250 0.335938
v -0.445312 -0.781250 0.335938
v 0.351562 -0.804688 0.375000
v -0.351562 -0.804688 0.375000
v 0.265625 -0.820312 0.335938
v -0.265625 -0.820312 0.335938
v 0.226562 -0.820312 0.242188
v -0.226562 -0.820312 0.242188
v 0.265625 -0.820312 0.156250
v -0.265625 -0.820312 0.156250
v 0.351562 -0.828125 0.242188
v -0.351562 -0.828125 0.242188
v 0.351562 -0.804688 0.117188
v -0.351562 -0.804688 0.117188
v 0.445312 -0.781250 0.156250
v -0.445312 -0.781250 0.156250
v 0.000000 -0.742188 0.429688
v 0.000000 -0.820312 0.351562
v 0.000000 -0.734375 -0.679688
v 0.000000 -0.781250 -0.320312
v 0.000000 -0.796875 -0.187500
v 0.000000 -0.718750 -0.773438
v 0.000000 -0.601562 0.406250
v 0.000000 -0.570312 0.570312
v 0.000000 0.546875 0.898438
v 0.000000 0.851562 0.562500
v 0.000000 0.828125 0.070312
v 0.000000 0.351562 -0.382812
v 0.203125 -0.562500 -0.187500
v -0.203125 -0.562500 -0.187500
v 0.312500 -0.570312 -0.437500
v -0.312500 -0.570312 -0.437500
v 0.351562 -0.570312 -0.695312
v -0.351562 -0.570312 -0.695312
v 0.367188 -0.531250 -0.890625
v -0.367188 -0.531250 -0.890625
v 0.328125 -0.523438 -0.945312
v -0.328125 -0.523438 -0.945312
v 0.179688 -0.554688 -0.968750
v -0.179688 -0.554688 -0.968750
v 0.000000 -0.578125 -0.984375
v 0.437500 -0.531250 -0.140625
v -0.437500 -0.531250 -0.140625
v 0.632812 -0.539062 -0.039062
v -0.632812 -0.539062 -0.039062
v 0.828125 -0.445312 0.148438
v -0.828125 -0.445312 0.148438
v 0.859375 -0.593750 0.429688
v -0.859375 -0.593750 0.429688
v 0.710938 -0.625000 0.484375
v -0.710938 -0.625000 0.484375
v 0.492188 -0.687500 0.601562
v -0.492188 -0.687500 0.601562
v 0.320312 -0.734375 0.757812
v -0.320312 -0.734375 0.757812
v 0.156250 -0.757812 0.718750
v -0.156250 -0.757812 0.718750
v 0.062500 -0.750000 0.492188
v -0.062500 -0.750000 0.492188
v 0.164062 -0.773438 0.414062
v -0.164062 -0.773438 0.414062
v 0.125000 -0.765625 0.304688
v -0.125000 -0.765625 0.304688
v 0.203125 -0.742188 0.093750
v -0.203125 -0.742188 0.093750
v 0.375000 -0.703125 0.015625
v -0.375000 -0.703125 0.015625
v 0.492188 -0.671875 0.062500
v -0.492188 -0.671875 0.062500
v 0.625000 -0.648438 0.187500
v -0.625000 -0.648438 0.187500
v 0.640625 -0.648438 0.296875
v -0.640625 -0.648438 0.296875
v 0.601562 -0.664062 0.375000
v -0.601562 -0.664062 0.375000
v 0.429688 -0.718750 0.437500
v -0.429688 -0.718750 0.437500
v 0.250000 -0.757812 0.468750
v -0.250000 -0.757812 0.468750
v 0.000000 -0.734375 -0.765625
v 0.109375 -0.734375 -0.718750
v -0.109375 -0.734375 -0.718750
v 0.117188 -0.710938 -0.835938
v -0.117188 -0.710938 -0.835938
v 0.062500 -0.695312 -0.882812
v -0.062500 -0.695312 -0.882812
v 0.000000 -0.687500 -0.890625
v 0.000000 -0.750000 -0.195312
v 0.000000 -0.742188 -0.140625
v 0.101562 -0.742188 -0.148438
v -0.101562 -0.742188 -0.148438
v 0.125000 -0.750000 -0.226562
v -0.125000 -0.750000 -0.226562
v 0.085938 -0.742188 -0.289062
v -0.085938 -0.742188 -0.289062
v 0.398438 -0.671875 -0.046875
v -0.398438 -0.671875 -0.046875
v 0.617188 -0.625000 0.054688
v -0.617188 -0.625000 0.054688
v 0.726562 -0.601562 0.203125
v -0.726562 -0.601562 0.203125
v 0.742188 -0.656250 0.375000
v -0.742188 -0.656250 0.375000
v 0.687500 -0.726562 0.414062
v -0.687500 -0.726562 0.414062
v 0.437500 -0.796875 0.546875
v -0.437500 -0.796875 0.546875
v 0.312500 -0.835938 0.640625
v -0.312500 -0.835938 0.640625
v 0.203125 -0.851562 0.617188
v -0.203125 -0.851562 0.617188
v 0.101562 -0.843750 0.429688
v -0.101562 -0.843750 0.429688
v 0.125000 -0.812500 -0.101562
v -0.125000 -0.812500 -0.101562
v 0.210938 -0.710938 -0.445312
v -0.210938 -0.710938 -0.445312
v 0.250000 -0.687500 -0.703125
v -0.250000 -0.687500 -0.703125
v 0.265625 -0.664062 -0.820312
v -0.265625 -0.664062 -0.820312
v 0.234375 -0.632812 -0.914062
v -0.234375 -0.632812 -0.914062
v 0.164062 -0.632812 -0.929688
v -0.164062 -0.632812 -0.929688
v 0.000000 -0.640625 -0.945312
v 0.000000 -0.726562 0.046875
v 0.000000 -0.765625 0.210938
v 0.328125 -0.742188 0.476562
v -0.328125 -0.742188 0.476562
v 0.164062 -0.750000 0.140625
v -0.164062 -0.750000 0.140625
v 0.132812 -0.757812 0.210938
v -0.132812 -0.757812 0.210938
v 0.117188 -0.734375 -0.687500
v -0.117188 -0.734375 -0.687500
v 0.078125 -0.750000 -0.445312
v -0.078125 -0.750000 -0.445312
v 0.000000 -0.750000 -0.445312
v 0.000000 -0.742188 -0.328125
v 0.093750 -0.781250 -0.273438
v -0.093750 -0.781250 -0.273438
v 0.132812 -0.796875 -0.226562
v -0.132812 -0.796875 -0.226562
v 0.109375 -0.781250 -0.132812
v -0.109375 -0.781250 -0.132812
v 0.039062 -0.781250 -0.125000
v -0.039062 -0.781250 -0.125000
v 0.000000 -0.828125 -0.203125
v 0.046875 -0.812500 -0.148438
v -0.046875 -0.812500 -0.148438
v 0.093750 -0.812500 -0.156250
v -0.093750 -0.812500 -0.156250
v 0.109375 -0.828125 -0.226562
v -0.109375 -0.828125 -0.226562
v 0.078125 -0.804688 -0.250000
v -0.078125 -0.804688 -0.250000
v 0.000000 -0.804688 -0.289062
v 0.257812 -0.554688 -0.312500
v -0.257812 -0.554688 -0.312500
v 0.164062 -0.710938 -0.242188
v -0.164062 -0.710938 -0.242188
v 0.179688 -0.710938 -0.312500
v -0.179688 -0.710938 -0.312500
v 0.234375 -0.554688 -0.250000
v -0.234375 -0.554688 -0.250000
v 0.000000 -0.687500 -0.875000
v 0.046875 -0.687500 -0.867188
v -0.046875 -0.687500 -0.867188
v 0.093750 -0.710938 -0.820312
v -0.093750 -0.710938 -0.820312
v 0.093750 -0.726562 -0.742188
v -0.093750 -0.726562 -0.742188
v 0.000000 -0.656250 -0.781250
v 0.093750 -0.664062 -0.750000
v -0.093750 -0.664062 -0.750000
v 0.093750 -0.640625 -0.812500
v -0.093750 -0.640625 -0.812500
v 0.046875 -0.632812 -0.851562
v -0.046875 -0.632812 -0.851562
v 0.000000 -0.632812 -0.859375
v 0.171875 -0.781250 0.218750
v -0.171875 -0.781250 0.218750
v 0.187500 -0.773438 0.156250
v -0.187500 -0.773438 0.156250
v 0.335938 -0.757812 0.429688
v -0.335938 -0.757812 0.429688
v 0.273438 -0.773438 0.421875
v -0.273438 -0.773438 0.421875
v 0.421875 -0.773438 0.398438
v -0.421875 -0.773438 0.398438
v 0.562500 -0.695312 0.351562
v -0.562500 -0.695312 0.351562
v 0.585938 -0.687500 0.289062
v -0.585938 -0.687500 0.289062
v 0.578125 -0.679688 0.195312
v -0.578125 -0.679688 0.195312
v 0.476562 -0.718750 0.101562
v -0.476562 -0.718750 0.101562
v 0.375000 -0.742188 0.062500
v -0.375000 -0.742188 0.062500
v 0.226562 -0.781250 0.109375
v -0.226562 -0.781250 0.109375
v 0.179688 -0.781250 0.296875
v -0.179688 -0.781250 0.296875
v 0.210938 -0.781250 0.375000
v -0.210938 -0.781250 0.375000
v 0.234375 -0.757812 0.359375
v -0.234375 -0.757812 0.359375
v 0.195312 -0.757812 0.296875
v -0.195312 -0.757812 0.296875
v 0.242188 -0.757812 0.125000
v -0.242188 -0.757812 0.125000
v 0.375000 -0.726562 0.085938
v -0.375000 -0.726562 0.085938
v 0.460938 -0.703125 0.117188
v -0.460938 -0.703125 0.117188
v 0.546875 -0.671875 0.210938
v -0.546875 -0.671875 0.210938
v 0.554688 -0.671875 0.281250
v -0.554688 -0.671875 0.281250
v 0.531250 -0.679688 0.335938
v -0.531250 -0.679688 0.335938
v 0.414062 -0.750000 0.390625
v -0.414062 -0.750000 0.390625
v 0.281250 -0.765625 0.398438
v -0.281250 -0.765625 0.398438
v 0.335938 -0.750000 0.406250
v -0.335938 -0.750000 0.406250
v 0.203125 -0.750000 0.171875
v -0.203125 -0.750000 0.171875
v 0.195312 -0.750000 0.226562
v -0.195312 -0.750000 0.226562
v 0.109375 -0.609375 0.460938
v -0.109375 -0.609375 0.460938
v 0.195312 -0.617188 0.664062
v -0.195312 -0.617188 0.664062
v 0.335938 -0.593750 0.687500
v -0.335938 -0.593750 0.687500
v 0.484375 -0.554688 0.554688
v -0.484375 -0.554688 0.554688
v 0.679688 -0.492188 0.453125
v -0.679688 -0.492188 0.453125
v 0.796875 -0.460938 0.406250
v -0.796875 -0.460938 0.406250
v 0.773438 -0.375000 0.164062
v -0.773438 -0.375000 0.164062
v 0.601562 -0.414062 0.000000
v -0.601562 -0.414062 0.000000
v 0.437500 -0.468750 -0.093750
v -0.437500 -0.468750 -0.093750
v 0.000000 -0.289062 0.898438
v 0.000000 0.078125 0.984375
v 0.000000 0.671875 -0.195312
v 0.000000 -0.187500 -0.460938
v 0.000000 -0.460938 -0.976562
v 0.000000 -0.343750 -0.804688
v 0.000000 -0.320312 -0.570312
v 0.000000 -0.281250 -0.484375
v 0.851562 -0.054688 0.234375
v -0.851562 -0.054688 0.234375
v 0.859375 0.046875 0.320312
v -0.859375 0.046875 0.320312
v 0.773438 0.437500 0.265625
v -0.773438 0.437500 0.265625
v 0.460938 0.703125 0.437500
v -0.460938 0.703125 0.437500
v 0.734375 -0.070312 -0.046875
v -0.734375 -0.070312 -0.046875
v 0.593750 0.164062 -0.125000
v -0.593750 0.164062 -0.125000
v 0.640625 0.429688 -0.007812
v -0.640625 0.429688 -0.007812
v 0.335938 0.664062 0.054688
v -0.335938 0.664062 0.054688
v 0.234375 -0.406250 -0.351562
v -0.234375 -0.406250 -0.351562
v 0.179688 -0.257812 -0.414062
v -0.179688 -0.257812 -0.414062
v 0.289062 -0.382812 -0.710938
v -0.289062 -0.382812 -0.710938
v 0.250000 -0.390625 -0.500000
v -0.250000 -0.390625 -0.500000
v 0.328125 -0.398438 -0.914062
v -0.328125 -0.398438 -0.914062
v 0.140625 -0.367188 -0.757812
v -0.140625 -0.367188 -0.757812
v 0.125000 -0.359375 -0.539062
v -0.125000 -0.359375 -0.539062
v 0.164062 -0.437500 -0.945312
v -0.164062 -0.437500 -0.945312
v 0.218750 -0.429688 -0.281250
v -0.218750 -0.429688 -0.281250
v 0.210938 -0.468750 -0.226562
v -0.210938 -0.468750 -0.226562
v 0.203125 -0.500000 -0.171875
v -0.203125 -0.500000 -0.171875
v 0.210938 -0.164062 -0.390625
v -0.210938 -0.164062 -0.390625
v 0.296875 0.265625 -0.312500
v -0.296875 0.265625 -0.312500
v 0.343750 0.539062 -0.148438
v -0.343750 0.539062 -0.148438
v 0.453125 0.382812 0.867188
v -0.453125 0.382812 0.867188
v 0.453125 0.070312 0.929688
v -0.453125 0.070312 0.929688
v 0.453125 -0.234375 0.851562
v -0.453125 -0.234375 0.851562
v 0.460938 -0.429688 0.523438
v -0.460938 -0.429688 0.523438
v 0.726562 -0.335938 0.406250
v -0.726562 -0.335938 0.406250
v 0.632812 -0.281250 0.453125
v -0.632812 -0.281250 0.453125
v 0.640625 -0.054688 0.703125
v -0.640625 -0.054688 0.703125
v 0.796875 -0.125000 0.562500
v -0.796875 -0.125000 0.562500
v 0.796875 0.117188 0.617188
v -0.796875 0.117188 0.617188
v 0.640625 0.195312 0.750000
v -0.640625 0.195312 0.750000
v 0.640625 0.445312 0.679688
v -0.640625 0.445312 0.679688
v 0.796875 0.359375 0.539062
v -0.796875 0.359375 0.539062
v 0.617188 0.585938 0.328125
v -0.617188 0.585938 0.328125
v 0.484375 0.546875 0.023438
v -0.484375 0.546875 0.023438
v 0.820312 0.203125 0.328125
v -0.820312 0.203125 0.328125
v 0.406250 -0.148438 -0.171875
v -0.406250 -0.148438 -0.171875
v 0.429688 0.210938 -0.195312
v -0.429688 0.210938 -0.195312
v 0.890625 0.234375 0.406250
v -0.890625 0.234375 0.406250
v 0.773438 0.125000 -0.140625
v -0.773438 0.125000 -0.140625
v 1.039062 0.328125 -0.101562
v -1.039062 0.328125 -0.101562
v 1.281250 0.429688 0.054688
v -1.281250 0.429688 0.054688
v 1.351562 0.421875 0.320312
v -1.351562 0.421875 0.320312
v 1.234375 0.421875 0.507812
v -1.234375 0.421875 0.507812
v 1.023438 0.312500 0.476562
v -1.023438 0.312500 0.476562
v 1.015625 0.289062 0.414062
v -1.015625 0.289062 0.414062
v 1.187500 0.390625 0.437500
v -1.187500 0.390625 0.437500
v 1.265625 0.406250 0.289062
v -1.265625 0.406250 0.289062
v 1.210938 0.406250 0.078125
v -1.210938 0.406250 0.078125
v 1.031250 0.304688 -0.039062
v -1.031250 0.304688 -0.039062
v 0.828125 0.132812 -0.070312
v -0.828125 0.132812 -0.070312
v 0.921875 0.218750 0.359375
v -0.921875 0.218750 0.359375
v 0.945312 0.289062 0.304688
v -0.945312 0.289062 0.304688
v 0.882812 0.210938 -0.023438
v -0.882812 0.210938 -0.023438
v 1.039062 0.367188 0.000000
v -1.039062 0.367188 0.000000
v 1.187500 0.445312 0.093750
v -1.187500 0.445312 0.093750
v 1.234375 0.445312 0.250000
v -1.234375 0.445312 0.250000
v 1.171875 0.437500 0.359375
v -1.171875 0.437500 0.359375
v 1.023438 0.359375 0.343750
v -1.023438 0.359375 0.343750
v 0.843750 0.210938 0.289062
v -0.843750 0.210938 0.289062
v 0.835938 0.273438 0.171875
v -0.835938 0.273438 0.171875
v 0.757812 0.273438 0.093750
v -0.757812 0.273438 0.093750
v 0.820312 0.273438 0.085938
v -0.820312 0.273438 0.085938
v 0.843750 0.273438 0.015625
v -0.843750 0.273438 0.015625
v 0.812500 0.273438 -0.015625
v -0.812500 0.273438 -0.015625
v 0.726562 0.070312 0.000000
v -0.726562 0.070312 0.000000
v 0.718750 0.171875 -0.023438
v -0.718750 0.171875 -0.023438
v 0.718750 0.187500 0.039062
v -0.718750 0.187500 0.039062
v 0.796875 0.210938 0.203125
v -0.796875 0.210938 0.203125
v 0.890625 0.265625 0.242188
v -0.890625 0.265625 0.242188
v 0.890625 0.320312 0.234375
v -0.890625 0.320312 0.234375
v 0.812500 0.320312 -0.015625
v -0.812500 0.320312 -0.015625
v 0.851562 0.320312 0.015625
v -0.851562 0.320312 0.015625
v 0.828125 0.320312 0.078125
v -0.828125 0.320312 0.078125
v 0.765625 0.320312 0.093750
v -0.765625 0.320312 0.093750
v 0.843750 0.320312 0.171875
v -0.843750 0.320312 0.171875
v 1.039062 0.414062 0.328125
v -1.039062 0.414062 0.328125
v 1.187500 0.484375 0.343750
v -1.187500 0.484375 0.343750
v 1.257812 0.492188 0.242188
v -1.257812 0.492188 0.242188
v 1.210938 0.484375 0.085938
v -1.210938 0.484375 0.085938
v 1.046875 0.421875 0.000000
v -1.046875 0.421875 0.000000
v 0.882812 0.265625 -0.015625
v -0.882812 0.265625 -0.015625
v 0.953125 0.343750 0.289062
v -0.953125 0.343750 0.289062
v 0.890625 0.328125 0.109375
v -0.890625 0.328125 0.109375
v 0.937500 0.335938 0.062500
v -0.937500 0.335938 0.062500
v 1.000000 0.367188 0.125000
v -1.000000 0.367188 0.125000
v 0.960938 0.351562 0.171875
v -0.960938 0.351562 0.171875
v 1.015625 0.375000 0.234375
v -1.015625 0.375000 0.234375
v 1.054688 0.382812 0.187500
v -1.054688 0.382812 0.187500
v 1.109375 0.390625 0.210938
v -1.109375 0.390625 0.210938
v 1.085938 0.390625 0.273438
v -1.085938 0.390625 0.273438
v 1.023438 0.484375 0.437500
v -1.023438 0.484375 0.437500
v 1.250000 0.546875 0.468750
v -1.250000 0.546875 0.468750
v 1.367188 0.500000 0.296875
v -1.367188 0.500000 0.296875
v 1.312500 0.531250 0.054688
v -1.312500 0.531250 0.054688
v 1.039062 0.492188 -0.085938
v -1.039062 0.492188 -0.085938
v 0.789062 0.328125 -0.125000
v -0.789062 0.328125 -0.125000
v 0.859375 0.382812 0.382812
v -0.859375 0.382812 0.382812
vn 0.6919 -0.6446 -0.3253
vn -0.6566 -0.7339 0.1738
vn 0.2107 -0.8690 0.4477
vn 0.6074 -0.7741 -0.1786
vn -0.4663 -0.7880 0.4020
vn 0.6566 -0.7339 0.1738
vn -0.6919 -0.6446 -0.3253
vn -0.0929 -0.6770 -0.7301
vn -0.7228 -0.6863 -0.0803
vn -0.6074 -0.7741 -0.1786
vn -0.5488 -0.7683 -0.3293
vn 0.6014 -0.6924 0.3986
vn 0.6914 -0.7180 -0.0798
vn 0.5488 -0.7683 -0.3293
vn 0.5095 -0.8259 0.2413
vn -0.0676 -0.8785 0.4730
vn -0.5095 -0.8259 0.2413
vn 0.4663 -0.7880 0.4020
vn -0.6014 -0.6924 0.3986
vn 0.0676 -0.8785 0.4730
vn -0.6914 -0.7180 -0.0798
vn 0.7228 -0.6863 -0.0803
vn 0.3840 -0.6656 -0.6400
vn -0.2107 -0.8690 0.4477
vn 0.8111 0.4867 0.3244
vn -0.8111 0.4867 0.3244
vn 0.2052 0.5334 0.8206
vn -0.2052 0.5334 0.8206
vn -0.4223 0.4607 0.7806
vn 0.4223 0.4607 0.7806
vn -0.8241 0.4658 0.3225
vn 0.8241 0.4658 0.3225
vn -0.8137 0.4650 -0.3487
vn 0.8137 0.4650 -0.3487
vn -0.4223 0.4607 -0.7806
vn 0.4223 0.4607 -0.7806
vn 0.2052 0.5334 -0.8206
vn -0.2052 0.5334 -0.8206
vn 0.7995 0.4875 -0.3510
vn -0.7995 0.4875 -0.3510
vn 0.4000 -0.9144 -0.0623
vn -0.4000 -0.9144 -0.0623
vn 0.3069 -0.9354 -0.1754
vn -0.3069 -0.9354 -0.1754
vn 0.0945 -0.9785 -0.1835
vn -0.0945 -0.9785 -0.1835
vn -0.0624 -0.9977 -0.0283
vn 0.0624 -0.9977 -0.0283
vn -0.0624 -0.9977 0.0260
vn 0.0624 -0.9977 0.0260
vn 0.0996 -0.9799 0.1729
vn -0.0996 -0.9799 0.1729
vn 0.3036 -0.9383 0.1656
vn -0.3036 -0.9383 0.1656
vn 0.4002 -0.9147 0.0572
vn -0.4002 -0.9147 0.0572
vn 0.1231 -0.4924 -0.8616
vn -0.1231 -0.4924 -0.8616
vn 0.2190 -0.4520 -0.8647
vn -0.2190 -0.4520 -0.8647
vn 0.5902 -0.6668 -0.4550
vn -0.5902 -0.6668 -0.4550
vn 0.7689 -0.6374 -0.0506
vn -0.7689 -0.6374 -0.0506
vn 0.7796 -0.6197 0.0900
vn -0.7796 -0.6197 0.0900
vn 0.3241 -0.4739 -0.8188
vn -0.3241 -0.4739 -0.8188
vn 0.3857 -0.6417 -0.6629
vn -0.3857 -0.6417 -0.6629
vn 0.6895 -0.5906 -0.4193
vn -0.6895 -0.5906 -0.4193
vn 0.6588 -0.6588 -0.3634
vn -0.6588 -0.6588 -0.3634
vn 0.5465 -0.7509 0.3707
vn -0.5465 -0.7509 0.3707
vn 0.5064 -0.5706 0.6464
vn -0.5064 -0.5706 0.6464
vn 0.6092 -0.6015 0.5167
vn -0.6092 -0.6015 0.5167
vn -0.0441 -0.7491 0.6610
vn 0.0441 -0.7491 0.6610
vn -0.7246 -0.6110 0.3187
vn 0.7246 -0.6110 0.3187
vn -0.5880 -0.5880 0.5554
vn 0.5880 -0.5880 0.5554
vn 0.5361 -0.7482 -0.3909
vn -0.5361 -0.7482 -0.3909
vn 0.2207 -0.8552 -0.4690
vn -0.2207 -0.8552 -0.4690
vn -0.0794 -0.8429 -0.5321
vn 0.0794 -0.8429 -0.5321
vn -0.0825 -0.7490 -0.6575
vn 0.0825 -0.7490 -0.6575
vn 0.0457 -0.8226 -0.5667
vn -0.0457 -0.8226 -0.5667
vn 0.2784 -0.9365 -0.2130
vn -0.2784 -0.9365 -0.2130
vn 0.3813 -0.9063 -0.1824
vn -0.3813 -0.9063 -0.1824
vn 0.3357 -0.8969 -0.2878
vn -0.3357 -0.8969 -0.2878
vn 0.3762 -0.9246 0.0603
vn -0.3762 -0.9246 0.0603
vn -0.1352 -0.9539 0.2680
vn 0.1352 -0.9539 0.2680
vn 0.3961 -0.8102 -0.4321
vn -0.3961 -0.8102 -0.4321
vn 0.1856 -0.9510 -0.2474
vn -0.1856 -0.9510 -0.2474
vn 0.0099 -0.9808 -0.1948
vn -0.0099 -0.9808 -0.1948
vn 0.0721 -0.7138 -0.6966
vn -0.0721 -0.7138 -0.6966
vn 0.1863 -0.7986 -0.5723
vn -0.1863 -0.7986 -0.5723
vn 0.3157 -0.9094 -0.2708
vn -0.3157 -0.9094 -0.2708
vn 0.3063 -0.9516 -0.0265
vn -0.3063 -0.9516 -0.0265
vn 0.3266 -0.9361 -0.1306
vn -0.3266 -0.9361 -0.1306
vn -0.0137 -0.9983 0.0574
vn 0.0137 -0.9983 0.0574
vn -0.0026 -0.9978 -0.0656
vn 0.0026 -0.9978 -0.0656
vn -0.0000 -1.0000 -0.0000
vn 0.8174 0.0442 -0.5744
vn -0.8174 0.0442 -0.5744
vn 0.9494 0.2144 0.2297
vn -0.9494 0.2144 0.2297
vn 0.0825 0.4124 0.9073
vn -0.0825 0.4124 0.9073
vn -0.8836 -0.3047 0.3555
vn 0.8836 -0.3047 0.3555
vn 0.4207 -0.2218 -0.8797
vn -0.4207 -0.2218 -0.8797
vn 0.2873 -0.7663 -0.5747
vn -0.2873 -0.7663 -0.5747
vn -0.6542 -0.4580 0.6019
vn 0.6542 -0.4580 0.6019
vn 0.1052 -0.6051 0.7892
vn -0.1052 -0.6051 0.7892
vn 0.7582 -0.5832 0.2916
vn -0.7582 -0.5832 0.2916
vn 0.3889 -0.5834 -0.7130
vn -0.3889 -0.5834 -0.7130
vn 0.0463 -0.9718 0.2314
vn -0.0463 -0.9718 0.2314
vn 0.0335 -0.9151 -0.4018
vn -0.0335 -0.9151 -0.4018
vn -0.4452 -0.8809 -0.1610
vn 0.4452 -0.8809 -0.1610
vn -0.2182 -0.8729 -0.4364
vn 0.2182 -0.8729 -0.4364
vn 0.4341 -0.8916 -0.1290
vn -0.4341 -0.8916 -0.1290
vn 0.3008 -0.9524 0.0501
vn -0.3008 -0.9524 0.0501
vn 0.8123 -0.4996 0.3010
vn -0.8123 -0.4996 0.3010
vn 0.8753 -0.4093 0.2574
vn -0.8753 -0.4093 0.2574
vn 0.9385 -0.3060 0.1601
vn -0.9385 -0.3060 0.1601
vn 0.2237 -0.7227 -0.6539
vn -0.2237 -0.7227 -0.6539
vn -0.1536 -0.9677 -0.1997
vn 0.1536 -0.9677 -0.1997
vn -0.2733 -0.9565 -0.1025
vn 0.2733 -0.9565 -0.1025
vn -0.0976 -0.9759 0.1952
vn 0.0976 -0.9759 0.1952
vn -0.1582 -0.2713 0.9494
vn 0.1582 -0.2713 0.9494
vn -0.6934 -0.1328 0.7082
vn 0.6934 -0.1328 0.7082
vn -1.0000 -0.0000 -0.0000
vn 1.0000 -0.0000 -0.0000
vn 0.3051 -0.1181 -0.9450
vn -0.3051 -0.1181 -0.9450
vn 0.0298 -0.9541 -0.2981
vn -0.0298 -0.9541 -0.2981
vn 0.1353 -0.9277 -0.3479
vn -0.1353 -0.9277 -0.3479
vn -0.5085 -0.8158 -0.2755
vn 0.5085 -0.8158 -0.2755
vn -0.3843 -0.9223 -0.0419
vn 0.3843 -0.9223 -0.0419
vn -0.2083 -0.9774 0.0374
vn 0.2083 -0.9774 0.0374
vn -0.5721 -0.6674 -0.4767
vn 0.5721 -0.6674 -0.4767
vn -0.1369 -0.6435 -0.7531
vn 0.1369 -0.6435 -0.7531
vn 0.4088 -0.6814 -0.6071
vn -0.4088 -0.6814 -0.6071
vn 0.5740 -0.7070 -0.4130
vn -0.5740 -0.7070 -0.4130
vn 0.5665 -0.8183 -0.0968
vn -0.5665 -0.8183 -0.0968
vn 0.5703 -0.8129 0.1180
vn -0.5703 -0.8129 0.1180
vn 0.4823 -0.6719 0.5621
vn -0.4823 -0.6719 0.5621
vn 0.2604 -0.7473 0.6114
vn -0.2604 -0.7473 0.6114
vn 0.1640 -0.9182 0.3607
vn -0.1640 -0.9182 0.3607
vn -0.0178 -0.9682 0.2495
vn 0.0178 -0.9682 0.2495
vn 0.3273 -0.8481 -0.4166
vn -0.3273 -0.8481 -0.4166
vn 0.2811 -0.9235 -0.2610
vn -0.2811 -0.9235 -0.2610
vn -0.2542 -0.7149 -0.6514
vn 0.2542 -0.7149 -0.6514
vn -0.0260 -0.5333 -0.8455
vn 0.0260 -0.5333 -0.8455
vn -0.3518 -0.8991 -0.2606
vn 0.3518 -0.8991 -0.2606
vn -0.3523 -0.9358 -0.0110
vn 0.3523 -0.9358 -0.0110
vn -0.1317 -0.8777 0.4608
vn 0.1317 -0.8777 0.4608
vn -0.0342 -0.7870 0.6159
vn 0.0342 -0.7870 0.6159
vn 0.3603 -0.7277 0.5836
vn -0.3603 -0.7277 0.5836
vn 0.4988 -0.6858 0.5300
vn -0.4988 -0.6858 0.5300
vn 0.6667 -0.6667 -0.3333
vn -0.6667 -0.6667 -0.3333
vn 0.8165 -0.5727 -0.0731
vn -0.8165 -0.5727 -0.0731
vn 0.7840 -0.6098 0.1161
vn -0.7840 -0.6098 0.1161
vn -0.5306 0.2461 0.8111
vn 0.5306 0.2461 0.8111
vn -0.8511 0.3730 0.3695
vn 0.8511 0.3730 0.3695
vn -0.2446 0.4331 0.8675
vn 0.2446 0.4331 0.8675
vn 0.5924 0.3030 0.7465
vn -0.5924 0.3030 0.7465
vn 0.3685 0.3118 0.8758
vn -0.3685 0.3118 0.8758
vn 0.2821 0.2880 0.9151
vn -0.2821 0.2880 0.9151
vn 0.8561 0.4991 0.1340
vn -0.8561 0.4991 0.1340
vn 0.5342 0.4376 -0.7233
vn -0.5342 0.4376 -0.7233
vn 0.3849 0.4368 -0.8131
vn -0.3849 0.4368 -0.8131
vn 0.2335 0.7800 -0.5806
vn -0.2335 0.7800 -0.5806
vn 0.2449 0.9678 -0.0583
vn -0.2449 0.9678 -0.0583
vn 0.1163 0.8837 -0.4535
vn -0.1163 0.8837 -0.4535
vn 0.1152 0.1388 -0.9836
vn -0.1152 0.1388 -0.9836
vn 0.1184 0.2260 -0.9669
vn -0.1184 0.2260 -0.9669
vn 0.9597 0.2808 -0.0085
vn -0.9597 0.2808 -0.0085
vn 0.9319 0.3242 0.1629
vn -0.9319 0.3242 0.1629
vn 0.1626 0.9865 0.0207
vn -0.1626 0.9865 0.0207
vn -0.0188 0.9758 -0.2177
vn 0.0188 0.9758 -0.2177
vn 0.7538 0.5884 -0.2926
vn -0.7538 0.5884 -0.2926
vn 0.9196 0.3678 0.1379
vn -0.9196 0.3678 0.1379
vn 0.9297 0.1944 0.3127
vn -0.9297 0.1944 0.3127
vn 0.9120 0.2329 0.3376
vn -0.9120 0.2329 0.3376
vn 0.9407 0.0607 0.3338
vn -0.9407 0.0607 0.3338
vn 0.1761 0.4402 -0.8805
vn -0.1761 0.4402 -0.8805
vn 0.3708 0.7991 -0.4733
vn -0.3708 0.7991 -0.4733
vn 0.3107 0.4660 -0.8284
vn -0.3107 0.4660 -0.8284
vn 0.2793 0.1287 -0.9515
vn -0.2793 0.1287 -0.9515
vn 0.3139 0.1807 -0.9321
vn -0.3139 0.1807 -0.9321
vn 0.9762 0.0609 -0.2083
vn -0.9762 0.0609 -0.2083
vn 0.8267 -0.2447 -0.5066
vn -0.8267 -0.2447 -0.5066
vn 0.3449 0.9315 -0.1158
vn -0.3449 0.9315 -0.1158
vn 0.1203 -0.2355 0.9644
vn -0.1203 -0.2355 0.9644
vn 0.1275 0.1851 0.9744
vn -0.1275 0.1851 0.9744
vn 0.3492 0.7241 0.5947
vn -0.3492 0.7241 0.5947
vn 0.4153 0.1449 0.8981
vn -0.4153 0.1449 0.8981
vn 0.1845 -0.6863 0.7036
vn -0.1845 -0.6863 0.7036
vn 0.6056 -0.1608 0.7794
vn -0.6056 -0.1608 0.7794
vn 0.7033 0.2053 0.6806
vn -0.7033 0.2053 0.6806
vn 0.6679 0.7166 0.2007
vn -0.6679 0.7166 0.2007
vn 0.4948 0.7528 0.4342
vn -0.4948 0.7528 0.4342
vn 0.6423 0.1761 0.7459
vn -0.6423 0.1761 0.7459
vn 0.7182 -0.1530 0.6788
vn -0.7182 -0.1530 0.6788
vn 0.7388 -0.5444 0.3972
vn -0.7388 -0.5444 0.3972
vn 0.3428 0.1579 0.9261
vn -0.3428 0.1579 0.9261
vn 0.2270 -0.7867 0.5740
vn -0.2270 -0.7867 0.5740
vn -0.1722 0.9795 0.1046
vn 0.1722 0.9795 0.1046
vn 0.0425 -0.4013 0.9150
vn -0.0425 -0.4013 0.9150
vn -0.1616 -0.9694 0.1847
vn 0.1616 -0.9694 0.1847
vn 0.9791 -0.0483 0.1973
vn -0.9791 -0.0483 0.1973
vn 0.9470 -0.3079 0.0918
vn -0.9470 -0.3079 0.0918
vn 0.9794 0.0661 0.1905
vn -0.9794 0.0661 0.1905
vn 0.9938 0.1070 0.0312
vn -0.9938 0.1070 0.0312
vn 0.7116 -0.0501 -0.7008
vn -0.7116 -0.0501 -0.7008
vn 0.3722 -0.0847 -0.9243
vn -0.3722 -0.0847 -0.9243
vn 0.4465 -0.2310 -0.8644
vn -0.4465 -0.2310 -0.8644
vn 0.6066 -0.2405 -0.7578
vn -0.6066 -0.2405 -0.7578
vn 0.7325 -0.2407 -0.6368
vn -0.7325 -0.2407 -0.6368
vn 0.2637 -0.8533 -0.4499
vn -0.2637 -0.8533 -0.4499
vn 0.5568 0.7673 -0.3181
vn -0.5568 0.7673 -0.3181
vn 0.5004 0.8190 -0.2807
vn -0.5004 0.8190 -0.2807
vn 0.3190 0.4205 -0.8494
vn -0.3190 0.4205 -0.8494
vn 0.7198 0.2793 -0.6356
vn -0.7198 0.2793 -0.6356
vn 0.4972 0.7473 -0.4408
vn -0.4972 0.7473 -0.4408
vn 0.3506 -0.8557 0.3807
vn -0.3506 -0.8557 0.3807
vn 0.4566 -0.8730 0.1715
vn -0.4566 -0.8730 0.1715
vn 0.2583 -0.9603 0.1055
vn -0.2583 -0.9603 0.1055
vn 0.2455 -0.9661 -0.0802
vn -0.2455 -0.9661 -0.0802
vn 0.4643 -0.8837 -0.0599
vn -0.4643 -0.8837 -0.0599
vn 0.6225 -0.7210 -0.3045
vn -0.6225 -0.7210 -0.3045
vn 0.4500 -0.6027 0.6590
vn -0.4500 -0.6027 0.6590
vn -0.2667 -0.4884 0.8309
vn 0.2667 -0.4884 0.8309
vn -0.8284 -0.5111 0.2291
vn 0.8284 -0.5111 0.2291
vn -0.5251 -0.7727 -0.3566
vn 0.5251 -0.7727 -0.3566
vn 0.4546 -0.6873 -0.5665
vn -0.4546 -0.6873 -0.5665
vn 0.6996 -0.5552 -0.4497
vn -0.6996 -0.5552 -0.4497
vn 0.7220 0.1126 -0.6827
vn -0.7220 0.1126 -0.6827
vn -0.1919 -0.9388 0.2860
vn 0.1919 -0.9388 0.2860
vn 0.9048 0.2047 -0.3734
vn -0.9048 0.2047 -0.3734
vn 0.1034 -0.9825 0.1551
vn -0.1034 -0.9825 0.1551
vn 0.0841 -0.3530 0.9318
vn -0.0841 -0.3530 0.9318
vn 0.6446 -0.7594 -0.0883
vn -0.6446 -0.7594 -0.0883
vn 0.4309 -0.7678 0.4740
vn -0.4309 -0.7678 0.4740
vn 0.8032 -0.3462 -0.4847
vn -0.8032 -0.3462 -0.4847
vn 0.5811 -0.7014 -0.4128
vn -0.5811 -0.7014 -0.4128
vn 0.5910 -0.6822 -0.4305
vn -0.5910 -0.6822 -0.4305
vn 0.9818 0.0591 -0.1804
vn -0.9818 0.0591 -0.1804
vn 0.9105 0.1175 -0.3965
vn -0.9105 0.1175 -0.3965
vn 0.9972 0.0725 -0.0181
vn -0.9972 0.0725 -0.0181
vn 0.7313 -0.1925 -0.6543
vn -0.7313 -0.1925 -0.6543
vn 0.7867 -0.1073 -0.6079
vn -0.7867 -0.1073 -0.6079
vn 0.7022 -0.1170 -0.7022
vn -0.7022 -0.1170 -0.7022
vn 0.1840 0.0511 0.9816
vn -0.1840 0.0511 0.9816
vn 0.9352 -0.1284 0.3301
vn -0.9352 -0.1284 0.3301
vn 0.6633 -0.0553 -0.7463
vn -0.6633 -0.0553 -0.7463
vn -0.0085 -0.0767 0.9970
vn 0.0085 -0.0767 0.9970
vn 0.6237 -0.3354 -0.7061
vn -0.6237 -0.3354 -0.7061
vn 0.2733 -0.3587 -0.8925
vn -0.2733 -0.3587 -0.8925
vn -0.8328 0.2200 -0.5080
vn 0.8328 0.2200 -0.5080
vn -0.8339 0.4981 0.2377
vn 0.8339 0.4981 0.2377
vn -0.5655 0.2539 0.7847
vn 0.5655 0.2539 0.7847
vn -0.0560 -0.0672 0.9962
vn 0.0560 -0.0672 0.9962
vn 0.1445 -0.9893 0.0222
vn -0.1445 -0.9893 0.0222
vn 0.3275 -0.9427 0.0645
vn -0.3275 -0.9427 0.0645
vn 0.3127 -0.9496 0.0232
vn -0.3127 -0.9496 0.0232
vn 0.1710 -0.9849 0.0274
vn -0.1710 -0.9849 0.0274
vn 0.3487 -0.8929 0.2849
vn -0.3487 -0.8929 0.2849
vn 0.4006 -0.9156 -0.0343
vn -0.4006 -0.9156 -0.0343
vn 0.2572 -0.9645 -0.0603
vn -0.2572 -0.9645 -0.0603
vn 0.0637 -0.9979 -0.0106
vn -0.0637 -0.9979 -0.0106
vn -0.3637 -0.6101 0.7039
vn 0.3637 -0.6101 0.7039
vn 0.6299 -0.7759 0.0355
vn -0.6299 -0.7759 0.0355
vn 0.4472 -0.8717 -0.2002
vn -0.4472 -0.8717 -0.2002
vn 0.5072 -0.8348 -0.2141
vn -0.5072 -0.8348 -0.2141
vn 0.5258 -0.8093 0.2619
vn -0.5258 -0.8093 0.2619
vn 0.2980 -0.7580 0.5802
vn -0.2980 -0.7580 0.5802
vn 0.0930 0.0805 -0.9924
vn -0.0930 0.0805 -0.9924
vn 0.5006 -0.0080 -0.8657
vn -0.5006 -0.0080 -0.8657
vn 0.9285 -0.2748 -0.2497
vn -0.9285 -0.2748 -0.2497
vn 0.8393 0.0378 0.5424
vn -0.8393 0.0378 0.5424
vn -0.2355 0.2589 0.9367
vn 0.2355 0.2589 0.9367
vn -0.4499 0.1285 0.8838
vn 0.4499 0.1285 0.8838
vn -0.5384 0.8427 -0.0098
vn 0.5384 0.8427 -0.0098
vn -0.1910 0.9813 -0.0241
vn 0.1910 0.9813 -0.0241
vn 0.4046 0.9141 0.0266
vn -0.4046 0.9141 0.0266
vn -0.7819 -0.0197 0.6231
vn 0.7819 -0.0197 0.6231
vn 0.5428 0.8142 -0.2063
vn -0.5428 0.8142 -0.2063
vn -0.2474 0.2945 -0.9231
vn 0.2474 0.2945 -0.9231
vn 0.0929 -0.6770 -0.7301
vn -0.3840 -0.6656 -0.6400
vt 0.000000 0.000000
vt 0.843250 0.588863
vt 0.866314 0.579310
vt 0.866314 0.585461
vt 0.847600 0.593213
vt 0.892780 0.865345
vt 0.898931 0.865345
vt 0.889378 0.888409
vt 0.885028 0.884059
vt 0.889378 0.588863
vt 0.885028 0.593213
vt 0.885028 0.846631
vt 0.889378 0.842281
vt 0.898931 0.611927
vt 0.892780 0.611927
vt 0.866314 0.838879
vt 0.866314 0.832728
vt 0.889378 0.634991
vt 0.885028 0.630641
vt 0.847600 0.846631
vt 0.843250 0.842281
vt 0.866314 0.644544
vt 0.866314 0.638393
vt 0.839848 0.865345
vt 0.833697 0.865345
vt 0.843250 0.634991
vt 0.847600 0.630641
vt 0.847600 0.884059
vt 0.843250 0.888409
vt 0.833697 0.611927
vt 0.839848 0.611927
vt 0.866314 0.891811
vt 0.866314 0.897962
vt 0.866314 0.611927
vt 0.866314 0.865345
vt 0.520711 0.060503
vt 0.517028 0.068490
vt 0.500000 0.064527
vt 0.500000 0.054411
vt 0.482972 0.068490
vt 0.479289 0.060503
vt 0.530457 0.065062
vt 0.522612 0.070678
vt 0.477388 0.070678
vt 0.469543 0.065062
vt 0.532878 0.067822
vt 0.526301 0.079422
vt 0.473699 0.079422
vt 0.467122 0.067822
vt 0.544695 0.083023
vt 0.529228 0.091098
vt 0.470772 0.091098
vt 0.455305 0.083023
vt 0.565647 0.115495
vt 0.537536 0.127779
vt 0.462464 0.127779
vt 0.434353 0.115495
vt 0.586916 0.172042
vt 0.626605 0.208159
vt 0.600470 0.238288
vt 0.535885 0.215568
vt 0.399530 0.238288
vt 0.373395 0.208159
vt 0.413084 0.172042
vt 0.464115 0.215568
vt 0.650908 0.240294
vt 0.636962 0.261221
vt 0.363038 0.261221
vt 0.349092 0.240294
vt 0.689501 0.268805
vt 0.655896 0.284413
vt 0.344104 0.284413
vt 0.310499 0.268805
vt 0.684517 0.317795
vt 0.659507 0.313152
vt 0.340493 0.313152
vt 0.315483 0.317795
vt 0.671357 0.334694
vt 0.649107 0.322437
vt 0.350893 0.322437
vt 0.328643 0.334694
vt 0.636775 0.370732
vt 0.613636 0.353108
vt 0.386364 0.353108
vt 0.363225 0.370732
vt 0.602261 0.395588
vt 0.594178 0.371277
vt 0.405822 0.371277
vt 0.397739 0.395588
vt 0.581044 0.398468
vt 0.577351 0.373341
vt 0.422649 0.373341
vt 0.418956 0.398468
vt 0.532016 0.387365
vt 0.539817 0.354339
vt 0.460183 0.354339
vt 0.467984 0.387365
vt 0.500000 0.382860
vt 0.500000 0.340417
vt 0.559135 0.334326
vt 0.579057 0.335646
vt 0.420943 0.335646
vt 0.440865 0.334326
vt 0.592090 0.332885
vt 0.407910 0.332885
vt 0.606163 0.325516
vt 0.393837 0.325516
vt 0.628251 0.311636
vt 0.371749 0.311636
vt 0.635551 0.300507
vt 0.364449 0.300507
vt 0.631484 0.283889
vt 0.368516 0.283889
vt 0.611331 0.264411
vt 0.388669 0.264411
vt 0.592372 0.254897
vt 0.407628 0.254897
vt 0.559669 0.267717
vt 0.440331 0.267717
vt 0.550878 0.277832
vt 0.500000 0.252445
vt 0.449122 0.277832
vt 0.544001 0.314523
vt 0.455999 0.314523
vt 0.500000 0.295691
vt 0.543637 0.293371
vt 0.456363 0.293371
vt 0.506819 0.075382
vt 0.500000 0.073497
vt 0.493181 0.075382
vt 0.511782 0.080633
vt 0.488218 0.080633
vt 0.512172 0.093457
vt 0.487828 0.093457
vt 0.514257 0.133422
vt 0.513874 0.097191
vt 0.486126 0.097191
vt 0.485743 0.133422
vt 0.520226 0.164615
vt 0.500000 0.157864
vt 0.500000 0.134352
vt 0.479774 0.164615
vt 0.500000 0.100063
vt 0.500000 0.091346
vt 0.530258 0.180239
vt 0.521901 0.181560
vt 0.517666 0.172353
vt 0.482334 0.172353
vt 0.478099 0.181560
vt 0.469742 0.180239
vt 0.523673 0.198817
vt 0.518957 0.194728
vt 0.481043 0.194728
vt 0.476327 0.198817
vt 0.500000 0.203867
vt 0.508211 0.197295
vt 0.491789 0.197295
vt 0.500000 0.197278
vt 0.500000 0.192167
vt 0.500000 0.165170
vt 0.513538 0.176949
vt 0.500000 0.171718
vt 0.486462 0.176949
vt 0.500000 0.186182
vt 0.508818 0.192407
vt 0.491182 0.192407
vt 0.515232 0.190709
vt 0.484768 0.190709
vt 0.516908 0.181873
vt 0.483092 0.181873
vt 0.544209 0.172814
vt 0.455791 0.172814
vt 0.541327 0.154899
vt 0.458673 0.154899
vt 0.578661 0.139176
vt 0.421339 0.139176
vt 0.583245 0.154155
vt 0.416755 0.154155
vt 0.500000 0.089977
vt 0.509911 0.090724
vt 0.490089 0.090724
vt 0.509713 0.082236
vt 0.490287 0.082236
vt 0.505196 0.077083
vt 0.494804 0.077083
vt 0.500000 0.075473
vt 0.503445 0.080840
vt 0.500000 0.080320
vt 0.496555 0.080840
vt 0.506660 0.083289
vt 0.493340 0.083289
vt 0.506822 0.086791
vt 0.493178 0.086791
vt 0.500000 0.085637
vt 0.562361 0.284338
vt 0.559190 0.294882
vt 0.437639 0.284338
vt 0.440810 0.294882
vt 0.563180 0.307151
vt 0.436820 0.307151
vt 0.570458 0.318697
vt 0.429542 0.318697
vt 0.569243 0.278245
vt 0.430757 0.278245
vt 0.589914 0.271772
vt 0.410086 0.271772
vt 0.602190 0.277180
vt 0.397810 0.277180
vt 0.617110 0.287175
vt 0.382890 0.287175
vt 0.618074 0.299197
vt 0.381926 0.299197
vt 0.615871 0.307438
vt 0.384129 0.307438
vt 0.598424 0.313725
vt 0.401576 0.313725
vt 0.590828 0.319797
vt 0.409172 0.319797
vt 0.582130 0.320991
vt 0.417870 0.320991
vt 0.578615 0.309394
vt 0.583998 0.312892
vt 0.421385 0.309394
vt 0.416002 0.312892
vt 0.589656 0.312336
vt 0.410344 0.312336
vt 0.596347 0.309249
vt 0.403653 0.309249
vt 0.606014 0.302517
vt 0.393986 0.302517
vt 0.607735 0.297520
vt 0.392265 0.297520
vt 0.606985 0.291216
vt 0.393015 0.291216
vt 0.598275 0.283083
vt 0.401725 0.283083
vt 0.589866 0.280167
vt 0.410134 0.280167
vt 0.576352 0.284624
vt 0.423648 0.284624
vt 0.572831 0.289915
vt 0.427169 0.289915
vt 0.573307 0.303342
vt 0.426693 0.303342
vt 0.572447 0.295716
vt 0.427553 0.295716
vt 0.529647 0.428636
vt 0.500000 0.428636
vt 0.470353 0.428636
vt 0.584616 0.428636
vt 0.415384 0.428636
vt 0.622301 0.417889
vt 0.377699 0.417889
vt 0.666214 0.388954
vt 0.333786 0.388954
vt 0.701481 0.344467
vt 0.298519 0.344467
vt 0.712163 0.315527
vt 0.287837 0.315527
vt 0.704305 0.260225
vt 0.295695 0.260225
vt 0.672947 0.224880
vt 0.327053 0.224880
vt 0.640497 0.198841
vt 0.359503 0.198841
vt 0.603553 0.023452
vt 0.625128 0.029461
vt 0.635753 0.082198
vt 0.598617 0.056841
vt 0.364247 0.082198
vt 0.374872 0.029461
vt 0.396447 0.023452
vt 0.401383 0.056841
vt 0.546781 0.009442
vt 0.556354 0.040906
vt 0.453219 0.009442
vt 0.443646 0.040906
vt 0.500000 0.033223
vt 0.527159 0.049514
vt 0.472841 0.049514
vt 0.537222 0.060794
vt 0.462778 0.060794
vt 0.558499 0.065137
vt 0.441501 0.065137
vt 0.588127 0.085177
vt 0.411873 0.085177
vt 0.607239 0.113940
vt 0.392761 0.113940
vt 0.612663 0.133675
vt 0.605467 0.151503
vt 0.394533 0.151503
vt 0.387337 0.133675
vt 0.600708 0.162985
vt 0.399292 0.162985
vt 0.922374 0.064228
vt 0.859647 0.117994
vt 0.823287 0.101559
vt 0.861342 0.027230
vt 0.176713 0.101559
vt 0.140353 0.117994
vt 0.077626 0.064228
vt 0.138658 0.027230
vt 0.765863 0.087001
vt 0.774604 0.010837
vt 0.234137 0.087001
vt 0.225396 0.010837
vt 0.661952 0.087561
vt 0.647010 0.028716
vt 0.338048 0.087561
vt 0.352990 0.028716
vt 0.743592 0.198572
vt 0.766410 0.233065
vt 0.256408 0.198572
vt 0.233590 0.233065
vt 0.987633 0.154243
vt 0.889478 0.177602
vt 0.110522 0.177602
vt 0.012367 0.154243
vt 0.899807 0.420886
vt 0.844317 0.347370
vt 0.881169 0.309153
vt 0.958963 0.357385
vt 0.118831 0.309153
vt 0.155683 0.347370
vt 0.100193 0.420886
vt 0.041037 0.357385
vt 0.903302 0.261367
vt 0.999860 0.253531
vt 0.096698 0.261367
vt 0.000140 0.253531
vt 0.724763 0.340212
vt 0.744725 0.304629
vt 0.766113 0.319494
vt 0.255275 0.304629
vt 0.275237 0.340212
vt 0.233887 0.319494
vt 0.793427 0.280495
vt 0.826663 0.297810
vt 0.206573 0.280495
vt 0.173337 0.297810
vt 0.823620 0.254612
vt 0.855331 0.267956
vt 0.176380 0.254612
vt 0.144669 0.267956
vt 0.835860 0.225225
vt 0.868309 0.233525
vt 0.164140 0.225225
vt 0.131691 0.233525
vt 0.813499 0.190705
vt 0.851288 0.181145
vt 0.148712 0.181145
vt 0.186501 0.190705
vt 0.772263 0.374010
vt 0.227737 0.374010
vt 0.744519 0.390057
vt 0.255481 0.390057
vt 0.824765 0.470987
vt 0.175235 0.470987
vt 0.792141 0.464714
vt 0.742181 0.461543
vt 0.726855 0.432574
vt 0.273145 0.432574
vt 0.257819 0.461543
vt 0.207859 0.464714
vt 0.795638 0.489991
vt 0.204362 0.489991
vt 0.786137 0.227788
vt 0.213863 0.227788
vt 0.802950 0.203415
vt 0.197050 0.203415
vt 0.769334 0.128771
vt 0.691484 0.146686
vt 0.230666 0.128771
vt 0.308516 0.146686
vt 0.780113 0.169386
vt 0.219887 0.169386
vt 0.803789 0.171181
vt 0.830917 0.139518
vt 0.169083 0.139518
vt 0.196211 0.171181
vt 0.574628 0.959188
vt 0.464516 0.959188
vt 0.477326 0.891852
vt 0.545439 0.884582
vt 0.272900 0.891852
vt 0.285710 0.959188
vt 0.175598 0.959188
vt 0.204787 0.884582
vt 0.605134 0.846978
vt 0.715894 0.897069
vt 0.145092 0.846978
vt 0.034332 0.897069
vt 0.605360 0.784410
vt 0.683874 0.757011
vt 0.144866 0.784410
vt 0.066352 0.757011
vt 0.574835 0.744212
vt 0.617867 0.719156
vt 0.175391 0.744212
vt 0.132359 0.719156
vt 0.534996 0.712528
vt 0.568728 0.682132
vt 0.215230 0.712528
vt 0.181498 0.682132
vt 0.483006 0.686791
vt 0.508539 0.641024
vt 0.267220 0.686791
vt 0.241687 0.641024
vt 0.513415 0.736977
vt 0.478880 0.719593
vt 0.271346 0.719593
vt 0.236811 0.736977
vt 0.541117 0.760754
vt 0.209109 0.760754
vt 0.557599 0.789442
vt 0.192627 0.789442
vt 0.553841 0.821849
vt 0.196385 0.821849
vt 0.524671 0.842380
vt 0.225555 0.842380
vt 0.485193 0.845321
vt 0.265033 0.845321
vt 0.786150 0.181127
vt 0.770208 0.191225
vt 0.213850 0.181127
vt 0.229792 0.191225
vt 0.408153 0.587507
vt 0.409610 0.674022
vt 0.342073 0.587507
vt 0.340616 0.674022
vt 0.400301 0.910556
vt 0.414155 0.878318
vt 0.336071 0.878318
vt 0.349925 0.910556
vt 0.443630 0.713731
vt 0.306596 0.713731
vt 0.429725 0.728622
vt 0.392812 0.710774
vt 0.357414 0.710774
vt 0.320501 0.728622
vt 0.422979 0.754609
vt 0.432640 0.746527
vt 0.327247 0.754609
vt 0.317586 0.746527
vt 0.427719 0.796173
vt 0.391578 0.815187
vt 0.358648 0.815187
vt 0.322507 0.796173
vt 0.448277 0.830976
vt 0.301949 0.830976
vt 0.797710 0.195652
vt 0.802580 0.199758
vt 0.197420 0.199758
vt 0.202290 0.195652
vt 0.789609 0.184671
vt 0.210391 0.184671
vt 0.466042 0.804091
vt 0.490498 0.816075
vt 0.284184 0.804091
vt 0.259728 0.816075
vt 0.448042 0.783921
vt 0.302184 0.783921
vt 0.438745 0.764960
vt 0.311481 0.764960
vt 0.445216 0.756351
vt 0.305010 0.756351
vt 0.449819 0.743458
vt 0.300407 0.743458
vt 0.456307 0.732687
vt 0.293919 0.732687
vt 0.475471 0.740871
vt 0.274755 0.740871
vt 0.514211 0.817769
vt 0.236015 0.817769
vt 0.527961 0.808598
vt 0.222265 0.808598
vt 0.530079 0.790754
vt 0.220147 0.790754
vt 0.518620 0.772385
vt 0.231606 0.772385
vt 0.498668 0.755033
vt 0.251558 0.755033
vt 0.468029 0.756171
vt 0.459660 0.770459
vt 0.282197 0.756171
vt 0.290566 0.770459
vt 0.487167 0.769899
vt 0.477354 0.785393
vt 0.263059 0.769899
vt 0.272872 0.785393
vt 0.504617 0.782999
vt 0.496545 0.797122
vt 0.245609 0.782999
vt 0.253681 0.797122
vt 0.516137 0.792591
vt 0.513713 0.804019
vt 0.234089 0.792591
vt 0.236513 0.804019
vt 0.574269 0.607668
vt 0.613510 0.655816
vt 0.175957 0.607668
vt 0.136716 0.655816
vt 0.644031 0.693270
vt 0.106195 0.693270
vt 0.668163 0.712097
vt 0.082063 0.712097
vt 0.727131 0.698475
vt 0.676584 0.686010
vt 0.023095 0.698475
vt 0.073642 0.686010
vt 0.729804 0.624370
vt 0.667013 0.640198
vt 0.020422 0.624370
vt 0.083213 0.640198
vt 0.721292 0.572934
vt 0.648152 0.594596
vt 0.028934 0.572934
vt 0.102074 0.594596
vt 0.630034 0.557583
vt 0.717709 0.538143
vt 0.032517 0.538143
vt 0.120192 0.557583
vt 0.526877 0.539235
vt 0.223349 0.539235
s 0
usemtl Skin
f 57/36/57 142/37/57 144/38/57 59/39/57
f 144/38/58 143/40/58 58/41/58 59/39/58
f 55/42/59 140/43/59 142/37/59 57/36/59
f 143/40/60 141/44/60 56/45/60 58/41/60
f 53/46/61 138/47/61 140/43/61 55/42/61
f 141/44/62 139/48/62 54/49/62 56/45/62
f 51/50/63 136/51/63 138/47/63 53/46/63
f 139/48/64 137/52/64 52/53/64 54/49/64
f 49/54/65 134/55/65 136/51/65 51/50/65
f 137/52/66 135/56/66 50/57/66 52/53/66
f 47/58/67 60/59/67 114/60/67 132/61/67
f 115/62/68 61/63/68 48/64/68 133/65/68
f 60/59/69 62/66/69 116/67/69 114/60/69
f 117/68/70 63/69/70 61/63/70 115/62/70
f 62/66/71 64/70/71 118/71/71 116/67/71
f 119/72/72 65/73/72 63/69/72 117/68/72
f 64/70/73 66/74/73 120/75/73 118/71/73
f 121/76/74 67/77/74 65/73/74 119/72/74
f 66/74/75 68/78/75 122/79/75 120/75/75
f 123/80/76 69/81/76 67/77/76 121/76/76
f 68/78/77 70/82/77 124/83/77 122/79/77
f 125/84/78 71/85/78 69/81/78 123/80/78
f 70/82/79 72/86/79 126/87/79 124/83/79
f 127/88/80 73/89/80 71/85/80 125/84/80
f 72/86/81 74/90/81 128/91/81 126/87/81
f 129/92/82 75/93/82 73/89/82 127/88/82
f 74/90/83 76/94/83 130/95/83 128/91/83
f 131/96/84 77/97/84 75/93/84 129/92/84
f 76/94/85 35/98/85 36/99/85 130/95/85
f 36/99/86 35/98/86 77/97/86 131/96/86
f 78/100/87 96/101/87 128/91/87 130/95/87
f 129/92/88 97/102/88 79/103/88 131/96/88
f 96/101/89 147/104/89 126/87/89 128/91/89
f 127/88/90 148/105/90 97/102/90 129/92/90
f 94/106/91 124/83/91 126/87/91 147/104/91
f 127/88/92 125/84/92 95/107/92 148/105/92
f 92/108/93 122/79/93 124/83/93 94/106/93
f 125/84/94 123/80/94 93/109/94 95/107/94
f 90/110/95 120/75/95 122/79/95 92/108/95
f 123/80/96 121/76/96 91/111/96 93/109/96
f 88/112/97 118/71/97 120/75/97 90/110/97
f 121/76/98 119/72/98 89/113/98 91/111/98
f 86/114/99 116/67/99 118/71/99 88/112/99
f 119/72/100 117/68/100 87/115/100 89/113/100
f 84/116/101 114/60/101 116/67/101 86/114/101
f 117/68/102 115/62/102 85/117/102 87/115/102
f 82/118/103 132/61/103 114/60/103 84/116/103
f 115/62/104 133/65/104 83/119/104 85/117/104
f 82/118/105 149/120/105 145/121/105 132/61/105
f 145/121/106 150/122/106 83/119/106 133/65/106
f 78/100/107 130/95/107 36/99/107 80/123/107
f 36/99/108 131/96/108 79/103/108 81/124/108
f 80/123/109 36/99/109 146/125/109 151/126/109
f 146/125/110 36/99/110 81/124/110 152/127/110
f 145/121/111 149/120/111 151/126/111 146/125/111
f 152/127/112 150/122/112 145/121/112 146/125/112
f 103/128/113 105/129/113 144/38/113 142/37/113
f 144/38/114 105/129/114 104/130/114 143/40/114
f 101/131/115 103/128/115 142/37/115 140/43/115
f 143/40/116 104/130/116 102/132/116 141/44/116
f 99/133/117 101/131/117 140/43/117 138/47/117
f 141/44/118 102/132/118 100/134/118 139/48/118
f 134/55/119 155/135/119 153/136/119 136/51/119
f 154/137/120 156/138/120 135/56/120 137/52/120
f 99/133/121 138/47/121 136/51/121 153/136/121
f 137/52/122 139/48/122 100/134/122 154/137/122
f 112/139/123 158/140/123 157/141/123 155/135/123
f 157/141/124 158/140/124 113/142/124 156/138/124
f 153/136/125 155/135/125 157/141/125 37/143/125
f 157/141/126 156/138/126 154/137/126 37/143/126
f 98/144/127 99/133/127 153/136/127 37/143/127
f 154/137/127 100/134/127 98/144/127 37/143/127
f 110/145/128 161/146/128 159/147/128 112/139/128
f 160/148/129 162/149/129 111/150/129 113/142/129
f 108/151/130 163/152/130 161/146/130 110/145/130
f 162/149/131 164/153/131 109/154/131 111/150/131
f 107/155/132 165/156/132 163/152/132 108/151/132
f 164/153/133 166/157/133 107/155/133 109/154/133
f 106/158/134 39/159/134 165/156/134 107/155/134
f 166/157/135 39/159/135 106/158/135 107/155/135
f 158/140/136 112/139/136 159/147/136 38/160/136
f 160/148/137 113/142/137 158/140/137 38/160/137
f 38/160/138 159/147/138 174/161/138 176/162/138
f 175/163/139 160/148/139 38/160/139 176/162/139
f 39/159/140 167/164/140 168/165/140 165/156/140
f 169/166/141 167/164/141 39/159/141 166/157/141
f 165/156/142 168/165/142 170/167/142 163/152/142
f 171/168/143 169/166/143 166/157/143 164/153/143
f 163/152/144 170/167/144 172/169/144 161/146/144
f 173/170/145 171/168/145 164/153/145 162/149/145
f 161/146/146 172/169/146 174/161/146 159/147/146
f 175/163/147 173/170/147 162/149/147 160/148/147
f 167/164/148 172/169/148 170/167/148 168/165/148
f 171/168/149 173/170/149 167/164/149 169/166/149
f 167/164/150 176/162/150 174/161/150 172/169/150
f 175/163/151 176/162/151 167/164/151 173/170/151
f 107/155/152 108/151/152 132/61/152 145/121/152
f 133/65/153 109/154/153 107/155/153 145/121/153
f 108/151/154 110/145/154 179/171/154 132/61/154
f 180/172/155 111/150/155 109/154/155 133/65/155
f 110/145/156 112/139/156 181/173/156 179/171/156
f 182/174/157 113/142/157 111/150/157 180/172/157
f 112/139/158 155/135/158 134/55/158 181/173/158
f 135/56/159 156/138/159 113/142/159 182/174/159
f 49/54/160 177/175/160 181/173/160 134/55/160
f 182/174/161 178/176/161 50/57/161 135/56/161
f 177/175/162 183/177/162 179/171/162 181/173/162
f 180/172/163 184/178/163 178/176/163 182/174/163
f 47/58/164 132/61/164 179/171/164 183/177/164
f 180/172/165 133/65/165 48/64/165 184/178/165
f 99/133/166 98/144/166 40/179/166 190/180/166
f 40/179/167 98/144/167 100/134/167 191/181/167
f 101/131/168 99/133/168 190/180/168 188/182/168
f 191/181/169 100/134/169 102/132/169 189/183/169
f 103/128/170 101/131/170 188/182/170 186/184/170
f 189/183/171 102/132/171 104/130/171 187/185/171
f 105/129/172 103/128/172 186/184/172 185/186/172
f 187/185/173 104/130/173 105/129/173 185/186/173
f 185/186/174 186/184/174 197/187/174 199/188/174
f 198/189/175 187/185/175 185/186/175 199/188/175
f 186/184/176 188/182/176 195/190/176 197/187/176
f 196/191/177 189/183/177 187/185/177 198/189/177
f 188/182/178 190/180/178 193/192/178 195/190/178
f 194/193/179 191/181/179 189/183/179 196/191/179
f 190/180/180 40/179/180 192/194/180 193/192/180
f 192/194/181 40/179/181 191/181/181 194/193/181
f 192/194/182 199/188/182 197/187/182 193/192/182
f 198/189/183 199/188/183 192/194/183 194/193/183
f 193/192/184 197/187/184 195/190/184
f 196/191/185 198/189/185 194/193/185
f 151/126/186 149/120/186 202/195/186 200/196/186
f 203/197/187 150/122/187 152/127/187 201/198/187
f 80/123/188 151/126/188 200/196/188 222/199/188
f 201/198/189 152/127/189 81/124/189 223/200/189
f 78/100/190 80/123/190 222/199/190 224/201/190
f 223/200/191 81/124/191 79/103/191 225/202/191
f 149/120/192 82/118/192 220/203/192 202/195/192
f 221/204/193 83/119/193 150/122/193 203/197/193
f 82/118/194 84/116/194 218/205/194 220/203/194
f 219/206/195 85/117/195 83/119/195 221/204/195
f 84/116/196 86/114/196 216/207/196 218/205/196
f 217/208/197 87/115/197 85/117/197 219/206/197
f 86/114/198 88/112/198 214/209/198 216/207/198
f 215/210/199 89/113/199 87/115/199 217/208/199
f 88/112/200 90/110/200 212/211/200 214/209/200
f 213/212/201 91/111/201 89/113/201 215/210/201
f 90/110/202 92/108/202 210/213/202 212/211/202
f 211/214/203 93/109/203 91/111/203 213/212/203
f 92/108/204 94/106/204 208/215/204 210/213/204
f 209/216/205 95/107/205 93/109/205 211/214/205
f 94/106/206 147/104/206 204/217/206 208/215/206
f 205/218/207 148/105/207 95/107/207 209/216/207
f 147/104/208 96/101/208 206/219/208 204/217/208
f 207/220/209 97/102/209 148/105/209 205/218/209
f 96/101/210 78/100/210 224/201/210 206/219/210
f 225/202/211 79/103/211 97/102/211 207/220/211
f 206/219/212 224/201/212 226/221/212 244/222/212
f 227/223/213 225/202/213 207/220/213 245/224/213
f 204/217/214 206/219/214 244/222/214 246/225/214
f 245/224/215 207/220/215 205/218/215 247/226/215
f 208/215/216 204/217/216 246/225/216 242/227/216
f 247/226/217 205/218/217 209/216/217 243/228/217
f 210/213/218 208/215/218 242/227/218 240/229/218
f 243/228/219 209/216/219 211/214/219 241/230/219
f 212/211/220 210/213/220 240/229/220 238/231/220
f 241/230/221 211/214/221 213/212/221 239/232/221
f 214/209/222 212/211/222 238/231/222 236/233/222
f 239/232/223 213/212/223 215/210/223 237/234/223
f 216/207/224 214/209/224 236/233/224 234/235/224
f 237/234/225 215/210/225 217/208/225 235/236/225
f 218/205/226 216/207/226 234/235/226 232/237/226
f 235/236/227 217/208/227 219/206/227 233/238/227
f 220/203/228 218/205/228 232/237/228 230/239/228
f 233/238/229 219/206/229 221/204/229 231/240/229
f 202/195/230 220/203/230 230/239/230 248/241/230
f 231/240/231 221/204/231 203/197/231 249/242/231
f 224/201/232 222/199/232 228/243/232 226/221/232
f 229/244/233 223/200/233 225/202/233 227/223/233
f 222/199/234 200/196/234 250/245/234 228/243/234
f 251/246/235 201/198/235 223/200/235 229/244/235
f 200/196/236 202/195/236 248/241/236 250/245/236
f 249/242/237 203/197/237 201/198/237 251/246/237
f 35/98/238 76/94/238 252/247/238 41/248/238
f 253/249/239 77/97/239 35/98/239 41/248/239
f 76/94/240 74/90/240 254/250/240 252/247/240
f 255/251/241 75/93/241 77/97/241 253/249/241
f 74/90/242 72/86/242 256/252/242 254/250/242
f 257/253/243 73/89/243 75/93/243 255/251/243
f 72/86/244 70/82/244 258/254/244 256/252/244
f 259/255/245 71/85/245 73/89/245 257/253/245
f 70/82/246 68/78/246 260/256/246 258/254/246
f 261/257/247 69/81/247 71/85/247 259/255/247
f 68/78/248 66/74/248 262/258/248 260/256/248
f 263/259/249 67/77/249 69/81/249 261/257/249
f 66/74/250 64/70/250 264/260/250 262/258/250
f 265/261/251 65/73/251 67/77/251 263/259/251
f 64/70/252 62/66/252 266/262/252 264/260/252
f 267/263/253 63/69/253 65/73/253 265/261/253
f 62/66/254 60/59/254 268/264/254 266/262/254
f 269/265/255 61/63/255 63/69/255 267/263/255
f 276/266/256 277/267/256 296/268/256 306/269/256
f 297/270/257 277/271/257 276/272/257 307/273/257
f 275/274/258 276/266/258 306/269/258 304/275/258
f 307/273/259 276/272/259 275/276/259 305/277/259
f 274/278/260 275/274/260 304/275/260 308/279/260
f 305/277/261 275/276/261 274/278/261 309/280/261
f 57/36/262 59/39/262 274/278/262 308/279/262
f 274/278/263 59/39/263 58/41/263 309/280/263
f 55/42/264 57/36/264 308/279/264 302/281/264
f 309/280/265 58/41/265 56/45/265 303/282/265
f 53/46/266 55/42/266 302/281/266 298/283/266
f 303/282/267 56/45/267 54/49/267 299/284/267
f 51/50/268 53/46/268 298/283/268 300/285/268
f 299/284/269 54/49/269 52/53/269 301/286/269
f 298/283/270 304/275/270 306/269/270 300/285/270
f 307/273/271 305/277/271 299/284/271 301/286/271
f 298/283/272 302/281/272 308/279/272 304/275/272
f 309/280/273 303/282/273 299/284/273 305/277/273
f 294/287/274 300/285/274 306/269/274 296/268/274
f 307/273/275 301/286/275 295/288/275 297/270/275
f 49/54/276 51/50/276 300/285/276 294/287/276
f 301/286/277 52/53/277 50/57/277 295/288/277
f 177/175/278 310/289/278 312/290/278 183/177/278
f 313/291/279 311/292/279 178/176/279 184/178/279
f 49/54/280 294/287/280 310/289/280 177/175/280
f 311/292/281 295/288/281 50/57/281 178/176/281
f 47/58/282 183/177/282 312/290/282 314/293/282
f 313/291/283 184/178/283 48/64/283 315/294/283
f 47/58/284 314/293/284 268/264/284 60/59/284
f 269/265/285 315/294/285 48/64/285 61/63/285
f 45/295/286 292/296/286 320/297/286 272/298/286
f 321/299/287 293/300/287 45/301/287 272/302/287
f 272/298/288 320/297/288 318/303/288 46/304/288
f 319/305/289 321/299/289 272/302/289 46/306/289
f 46/304/290 318/303/290 316/307/290 273/308/290
f 317/309/291 319/305/291 46/306/291 273/310/291
f 273/308/292 316/307/292 296/268/292 277/267/292
f 297/270/293 317/309/293 273/310/293 277/271/293
f 294/287/294 296/268/294 316/307/294 310/289/294
f 317/309/295 297/270/295 295/288/295 311/292/295
f 264/260/296 266/262/296 286/311/296 278/312/296
f 287/313/297 267/263/297 265/261/297 279/314/297
f 44/315/298 284/316/298 292/296/298 45/295/298
f 293/300/299 285/317/299 44/318/299 45/301/299
f 270/319/300 326/320/300 324/321/300 271/322/300
f 325/323/301 327/324/301 270/325/301 271/326/301
f 271/322/302 324/321/302 322/327/302 43/328/302
f 323/329/303 325/323/303 271/326/303 43/330/303
f 43/328/304 322/327/304 284/316/304 44/315/304
f 285/317/305 323/329/305 43/330/305 44/318/305
f 260/331/306 262/258/306 330/332/306 332/333/306
f 331/334/307 263/259/307 261/335/307 333/336/307
f 332/333/308 330/332/308 336/337/308 334/338/308
f 337/339/309 331/334/309 333/336/309 335/340/309
f 334/338/310 336/337/310 338/341/310 340/342/310
f 339/343/311 337/339/311 335/340/311 341/344/311
f 340/342/312 338/341/312 344/345/312 342/346/312
f 345/347/313 339/343/313 341/344/313 343/348/313
f 282/349/314 346/350/314 342/346/314 344/345/314
f 343/348/315 347/351/315 283/352/315 345/347/315
f 284/316/316 322/327/316 342/346/316 346/350/316
f 343/348/317 323/329/317 285/317/317 347/351/317
f 322/327/318 324/321/318 340/342/318 342/346/318
f 341/344/319 325/323/319 323/329/319 343/348/319
f 324/321/320 326/320/320 334/338/320 340/342/320
f 335/340/321 327/324/321 325/323/321 341/344/321
f 326/320/322 328/353/322 332/333/322 334/338/322
f 333/336/323 329/354/323 327/324/323 335/340/323
f 258/355/324 260/331/324 332/333/324 328/353/324
f 333/336/325 261/335/325 259/356/325 329/354/325
f 42/357/326 328/353/326 326/320/326 270/319/326
f 327/324/327 329/354/327 42/358/327 270/325/327
f 252/359/328 254/360/328 256/361/328 258/355/328
f 257/362/329 255/363/329 253/364/329 259/356/329
f 252/359/330 258/355/330 328/353/330 42/357/330
f 329/354/331 259/356/331 253/364/331 42/358/331
f 41/365/332 252/359/332 42/357/332
f 42/358/333 253/364/333 41/366/333
f 262/258/334 264/260/334 278/312/334 330/332/334
f 279/314/335 265/261/335 263/259/335 331/334/335
f 278/312/336 280/367/336 336/337/336 330/332/336
f 337/339/337 281/368/337 279/314/337 331/334/337
f 280/367/338 350/369/338 338/341/338 336/337/338
f 339/343/339 351/370/339 281/368/339 337/339/339
f 282/349/340 344/345/340 338/341/340 350/369/340
f 339/343/341 345/347/341 283/352/341 351/370/341
f 316/307/342 318/303/342 354/371/342 352/372/342
f 355/373/343 319/305/343 317/309/343 353/374/343
f 286/311/344 352/372/344 354/371/344 288/375/344
f 355/373/345 353/374/345 287/313/345 289/376/345
f 266/262/346 268/264/346 352/372/346 286/311/346
f 353/374/347 269/265/347 267/263/347 287/313/347
f 268/264/348 312/290/348 310/289/348 352/372/348
f 311/292/349 313/291/349 269/265/349 353/374/349
f 310/289/350 316/307/350 352/372/350
f 353/374/351 317/309/351 311/292/351
f 268/264/352 314/293/352 312/290/352
f 313/291/353 315/294/353 269/265/353
f 282/349/354 290/377/354 348/378/354 346/350/354
f 349/379/355 291/380/355 283/352/355 347/351/355
f 284/316/356 346/350/356 348/378/356 292/296/356
f 349/379/357 347/351/357 285/317/357 293/300/357
f 288/375/358 354/371/358 348/378/358 290/377/358
f 349/379/359 355/373/359 289/376/359 291/380/359
f 318/303/360 320/297/360 348/378/360 354/371/360
f 349/379/361 321/299/361 319/305/361 355/373/361
f 292/296/362 348/378/362 320/297/362
f 321/299/363 349/379/363 293/300/363
f 368/381/364 356/382/364 382/383/364 370/384/364
f 383/385/365 357/386/365 369/387/365 371/388/365
f 368/381/366 370/384/366 372/389/366 366/390/366
f 373/391/367 371/388/367 369/387/367 367/392/367
f 366/390/368 372/389/368 374/393/368 364/394/368
f 375/395/369 373/391/369 367/392/369 365/396/369
f 364/394/370 374/393/370 376/397/370 362/398/370
f 377/399/371 375/395/371 365/396/371 363/400/371
f 362/398/372 376/397/372 378/401/372 360/402/372
f 379/403/373 377/399/373 363/400/373 361/404/373
f 360/402/374 378/401/374 380/405/374 358/406/374
f 381/407/375 379/403/375 361/404/375 359/408/375
f 378/401/376 388/409/376 386/410/376 380/405/376
f 387/411/377 389/412/377 379/403/377 381/407/377
f 376/397/378 390/413/378 388/409/378 378/401/378
f 389/412/379 391/414/379 377/399/379 379/403/379
f 374/393/380 392/415/380 390/413/380 376/397/380
f 391/414/381 393/416/381 375/395/381 377/399/381
f 372/389/382 394/417/382 392/415/382 374/393/382
f 393/416/383 395/418/383 373/391/383 375/395/383
f 370/384/384 396/419/384 394/417/384 372/389/384
f 395/418/385 397/420/385 371/388/385 373/391/385
f 370/384/386 382/383/386 384/421/386 396/419/386
f 385/422/387 383/385/387 371/388/387 397/420/387
f 286/311/388 288/375/388 412/423/388 410/424/388
f 413/425/389 289/376/389 287/313/389 411/426/389
f 288/427/390 358/406/390 380/405/390 412/428/390
f 381/407/391 359/408/391 289/429/391 413/430/391
f 278/312/392 286/311/392 410/424/392 280/367/392
f 411/426/393 287/313/393 279/314/393 281/368/393
f 350/431/394 398/432/394 382/383/394 356/382/394
f 383/385/395 399/433/395 351/434/395 357/386/395
f 380/405/396 386/410/396 408/435/396 412/428/396
f 409/436/397 387/411/397 381/407/397 413/430/397
f 406/437/398 414/438/398 412/428/398 408/435/398
f 413/430/399 415/439/399 407/440/399 409/436/399
f 402/441/400 414/438/400 406/437/400 404/442/400
f 407/440/401 415/439/401 403/443/401 405/444/401
f 400/445/402 416/446/402 414/438/402 402/441/402
f 415/439/403 417/447/403 401/448/403 403/443/403
f 398/432/404 416/446/404 400/445/404 418/449/404
f 401/448/405 417/447/405 399/433/405 419/450/405
f 382/383/406 398/432/406 418/449/406 384/421/406
f 419/450/407 399/433/407 383/385/407 385/422/407
f 280/367/408 416/451/408 398/452/408 350/369/408
f 399/453/409 417/454/409 281/368/409 351/370/409
f 280/367/410 410/424/410 414/455/410 416/451/410
f 415/456/411 411/426/411 281/368/411 417/454/411
f 410/424/412 412/423/412 414/455/412
f 415/456/413 413/425/413 411/426/413
f 360/402/468 358/406/468 472/499/468 470/500/468
f 473/501/469 359/408/469 361/404/469 471/502/469
f 362/398/470 360/402/470 470/500/470 468/503/470
f 471/502/471 361/404/471 363/400/471 469/504/471
f 364/394/472 362/398/472 468/503/472 466/505/472
f 469/504/473 363/400/473 365/396/473 467/506/473
f 366/507/474 364/394/474 466/505/474 464/508/474
f 467/506/475 365/396/475 367/509/475 465/510/475
f 368/511/476 366/507/476 464/508/476 462/512/476
f 465/510/477 367/509/477 369/513/477 463/514/477
f 356/515/478 368/511/478 462/512/478 474/516/478
f 463/514/479 369/513/479 357/517/479 475/518/479
f 462/512/480 470/500/480 472/499/480 474/516/480
f 473/501/481 471/502/481 463/514/481 475/518/481
f 462/512/482 464/508/482 468/503/482 470/500/482
f 469/504/483 465/510/483 463/514/483 471/502/483
f 464/508/484 466/505/484 468/503/484
f 469/504/485 467/506/485 465/510/485
f 282/519/486 350/520/486 356/515/486 474/516/486
f 357/517/487 351/521/487 283/522/487 475/518/487
f 282/519/488 474/516/488 472/499/488 290/523/488
f 473/501/489 475/518/489 283/522/489 291/524/489
f 288/427/490 290/523/490 472/499/490 358/406/490
f 473/501/491 291/524/491 289/429/491 359/408/491
usemtl EyeWhite
f 236/1/1 15/1/1 1/1/1 234/1/1
f 14/1/2 241/1/2 239/1/2 16/1/2
f 242/1/3 246/1/3 11/1/3 13/1/3
f 251/1/4 8/1/4 6/1/4 249/1/4
f 244/1/5 226/1/5 9/1/5
f 238/1/6 240/1/6 13/1/6 15/1/6
f 2/1/7 16/1/7 237/1/7 235/1/7
f 3/1/8 5/1/8 230/1/8 232/1/8
f 16/1/9 239/1/9 237/1/9
f 250/1/10 248/1/10 5/1/10 7/1/10
f 5/1/11 248/1/11 230/1/11
f 240/1/12 242/1/12 13/1/12
f 229/1/13 8/1/13 251/1/13
f 249/1/14 6/1/14 231/1/14
f 227/1/15 10/1/15 8/1/15 229/1/15
f 12/1/16 10/1/16 245/1/16 247/1/16
f 226/1/17 228/1/17 7/1/17 9/1/17
f 227/1/18 245/1/18 10/1/18
f 243/1/19 241/1/19 14/1/19
f 244/1/20 9/1/20 11/1/20 246/1/20
f 228/1/21 250/1/21 7/1/21
f 15/1/22 236/1/22 238/1/22
f 3/1/23 232/1/23 234/1/23 1/1/23
f 247/1/24 243/1/24 14/1/24 12/1/24
f 6/1/492 4/1/492 233/1/492 231/1/492
f 235/1/493 233/1/493 4/1/493 2/1/493
usemtl EyeBlack
f 15/2/25 13/3/25 19/4/25 17/5/25
f 20/6/26 14/7/26 16/8/26 18/9/26
f 13/3/27 11/10/27 21/11/27 19/4/27
f 22/12/28 12/13/28 14/7/28 20/6/28
f 11/10/29 9/14/29 23/15/29 21/11/29
f 24/16/30 10/17/30 12/13/30 22/12/30
f 9/14/31 7/18/31 25/19/31 23/15/31
f 26/20/32 8/21/32 10/17/32 24/16/32
f 7/18/33 5/22/33 27/23/33 25/19/33
f 28/24/34 6/25/34 8/21/34 26/20/34
f 5/22/35 3/26/35 31/27/35 27/23/35
f 32/28/36 4/29/36 6/25/36 28/24/36
f 3/26/37 1/30/37 33/31/37 31/27/37
f 34/32/38 2/33/38 4/29/38 32/28/38
f 1/30/39 15/2/39 17/5/39 33/31/39
f 18/9/40 16/8/40 2/33/40 34/32/40
f 29/34/41 33/31/41 17/5/41
f 18/9/42 34/32/42 30/35/42
f 31/27/43 33/31/43 29/34/43
f 30/35/44 34/32/44 32/28/44
f 29/34/45 27/23/45 31/27/45
f 32/28/46 28/24/46 30/35/46
f 29/34/47 25/19/47 27/23/47
f 28/24/48 26/20/48 30/35/48
f 29/34/49 23/15/49 25/19/49
f 26/20/50 24/16/50 30/35/50
f 29/34/51 21/11/51 23/15/51
f 24/16/52 22/12/52 30/35/52
f 29/34/53 19/4/53 21/11/53
f 22/12/54 20/6/54 30/35/54
f 29/34/55 17/5/55 19/4/55
f 20/6/56 18/9/56 30/35/56
usemtl Ear
f 384/421/414 418/449/414 420/457/414 444/458/414
f 421/459/415 419/450/415 385/422/415 445/460/415
f 418/449/416 400/445/416 430/461/416 420/457/416
f 431/462/417 401/448/417 419/450/417 421/459/417
f 400/445/418 402/441/418 428/463/418 430/461/418
f 429/464/419 403/443/419 401/448/419 431/462/419
f 402/441/420 404/442/420 426/465/420 428/463/420
f 427/466/421 405/444/421 403/443/421 429/464/421
f 404/442/422 406/437/422 424/467/422 426/465/422
f 425/468/423 407/440/423 405/444/423 427/466/423
f 406/437/424 408/435/424 422/469/424 424/467/424
f 423/470/425 409/436/425 407/440/425 425/468/425
f 408/435/426 386/410/426 442/471/426 422/469/426
f 443/472/427 387/411/427 409/436/427 423/470/427
f 396/419/428 384/421/428 444/458/428 432/473/428
f 445/460/429 385/422/429 397/420/429 433/474/429
f 394/417/430 396/419/430 432/473/430 434/475/430
f 433/474/431 397/420/431 395/418/431 435/476/431
f 392/415/432 394/417/432 434/475/432 436/477/432
f 435/476/433 395/418/433 393/416/433 437/478/433
f 390/413/434 392/415/434 436/477/434 438/479/434
f 437/478/435 393/416/435 391/414/435 439/480/435
f 388/409/436 390/413/436 438/479/436 440/481/436
f 439/480/437 391/414/437 389/412/437 441/482/437
f 386/410/438 388/409/438 440/481/438 442/471/438
f 441/482/439 389/412/439 387/411/439 443/472/439
f 426/465/440 424/467/440 448/483/440 446/484/440
f 449/485/441 425/468/441 427/466/441 447/486/441
f 446/484/442 448/483/442 450/487/442 452/488/442
f 451/489/443 449/485/443 447/486/443 453/490/443
f 452/488/444 450/487/444 456/491/444 454/492/444
f 457/493/445 451/489/445 453/490/445 455/494/445
f 454/492/446 456/491/446 458/495/446 460/496/446
f 459/497/447 457/493/447 455/494/447 461/498/447
f 432/473/448 444/458/448 454/492/448 460/496/448
f 455/494/449 445/460/449 433/474/449 461/498/449
f 420/457/450 452/488/450 454/492/450 444/458/450
f 455/494/451 453/490/451 421/459/451 445/460/451
f 420/457/452 430/461/452 446/484/452 452/488/452
f 447/486/453 431/462/453 421/459/453 453/490/453
f 426/465/454 446/484/454 430/461/454 428/463/454
f 431/462/455 447/486/455 427/466/455 429/464/455
f 422/469/456 442/471/456 448/483/456 424/467/456
f 449/485/457 443/472/457 423/470/457 425/468/457
f 440/481/458 450/487/458 448/483/458 442/471/458
f 449/485/459 451/489/459 441/482/459 443/472/459
f 438/479/460 456/491/460 450/487/460 440/481/460
f 451/489/461 457/493/461 439/480/461 441/482/461
f 436/477/462 458/495/462 456/491/462 438/479/462
f 457/493/463 459/497/463 437/478/463 439/480/463
f 434/475/464 460/496/464 458/495/464 436/477/464
f 459/497/465 461/498/465 435/476/465 437/478/465
f 432/473/466 460/496/466 434/475/466
f 435/476/467 461/498/467 433/474/467
